# xmcd
#
# Track frame offsets:
# 150
# 675
# 24281
# 47777
# 70568
# 93497
# 115631
# 138056
# 160655
# 183359
# 206296
# 228963
# 251399
# 273335
# 296074
#
# Disc length: 4241 seconds
#
# Revision: 0
# Processed by: cddbd v1.5.1PL2 Copyright (c) Steve Scherf et al.
# Submitted via: Audion 3.0.2 (http://www.panic.com/audion/)
#
DISCID=b8108f0f
DTITLE=?ke Smedberg-Blod av mitt blod - CD-BOK 04.05
DYEAR=1900
DGENRE=
TTITLE0=01.04
TTITLE1=02.04
TTITLE2=03.04
TTITLE3=04.04
TTITLE4=05.04
TTITLE5=06.04
TTITLE6=07.04
TTITLE7=08.04
TTITLE8=09.04
TTITLE9=10.04
TTITLE10=11.04
TTITLE11=12.04
TTITLE12=13.04
TTITLE13=14.04
TTITLE14=15.04
EXTD=
EXTT0=
EXTT1=
EXTT2=
EXTT3=
EXTT4=
EXTT5=
EXTT6=
EXTT7=
EXTT8=
EXTT9=
EXTT10=
EXTT11=
EXTT12=
EXTT13=
EXTT14=
PLAYORDER=
